<?xml version="1.0" encoding="UTF-8" standalone="no"?>
<!-- Created with Inkscape (http://www.inkscape.org/) -->

<svg
   xmlns:dc="http://purl.org/dc/elements/1.1/"
   xmlns:cc="http://creativecommons.org/ns#"
   xmlns:rdf="http://www.w3.org/1999/02/22-rdf-syntax-ns#"
   xmlns:svg="http://www.w3.org/2000/svg"
   xmlns="http://www.w3.org/2000/svg"
   xmlns:sodipodi="http://sodipodi.sourceforge.net/DTD/sodipodi-0.dtd"
   xmlns:inkscape="http://www.inkscape.org/namespaces/inkscape"
   width="264.58334mm"
   height="91.153679mm"
   viewBox="0 0 264.58335 91.153676"
   version="1.1"
   id="svg1617"
   inkscape:version="0.92.4 (5da689c313, 2019-01-14)"
   sodipodi:docname="Kino Indonesia logo.svg">
  <defs
     id="defs1611">
    <clipPath
       clipPathUnits="userSpaceOnUse"
       id="clipPath1001">
      <path
         d="M 0,0.457031 H 4958 V 7016.207 H 0 Z"
         id="path999"
         inkscape:connector-curvature="0" />
    </clipPath>
  </defs>
  <sodipodi:namedview
     id="base"
     pagecolor="#ffffff"
     bordercolor="#666666"
     borderopacity="1.0"
     inkscape:pageopacity="0.0"
     inkscape:pageshadow="2"
     inkscape:zoom="1"
     inkscape:cx="500.52631"
     inkscape:cy="-0.90705206"
     inkscape:document-units="mm"
     inkscape:current-layer="layer1"
     showgrid="false"
     fit-margin-top="0"
     fit-margin-left="0"
     fit-margin-right="0"
     fit-margin-bottom="0"
     inkscape:window-width="1920"
     inkscape:window-height="1001"
     inkscape:window-x="-9"
     inkscape:window-y="-9"
     inkscape:window-maximized="1" />
  <metadata
     id="metadata1614">
    <rdf:RDF>
      <cc:Work
         rdf:about="">
        <dc:format>image/svg+xml</dc:format>
        <dc:type
           rdf:resource="http://purl.org/dc/dcmitype/StillImage" />
        <dc:title></dc:title>
      </cc:Work>
    </rdf:RDF>
  </metadata>
  <g
     inkscape:label="Layer 1"
     inkscape:groupmode="layer"
     id="layer1"
     transform="translate(229.95355,85.530806)">
    <g
       id="g2300"
       transform="matrix(1.0005917,0,0,1.0005917,0.13606776,-0.00332716)">
      <path
         d="m -184.02314,-39.927555 -19.77469,27.030694 45.07106,18.2651217 c 0.40807,0.1650569 0.8532,0.254609 1.27919,0.254609 1.0302,0 2.03775,-0.4705876 2.69973,-1.316943 0.93767,-1.2045639 0.96716,-2.8902509 0.0611,-4.12642141"
         style="fill:#02579d;fill-opacity:1;fill-rule:nonzero;stroke:none;stroke-width:0.17559239"
         id="path1003"
         inkscape:connector-curvature="0" />
      <path
         d="m -216.31634,-84.078508 c -0.86497,-1.194028 -2.41158,-1.687443 -3.82054,-1.227391 -1.40333,0.461808 -2.3561,1.76646 -2.3561,3.246704 v 27.985916 l 20.71868,-10.129925"
         style="fill:#02579d;fill-opacity:1;fill-rule:nonzero;stroke:none;stroke-width:0.17559239"
         id="path1005"
         inkscape:connector-curvature="0" />
      <path
         d="m -66.451736,-54.642198 -0.09306,-0.02107 -0.201932,0.02107 c -1.599646,0.219491 -10.762058,2.022825 -11.546956,14.482861 v 28.677751 c 0,1.07287 0.870938,1.9525875 1.952588,1.9525875 h 9.371366 c 1.076381,0 1.963123,-0.8797175 1.963123,-1.9525875 v -41.267726 c 0,-0.904301 -0.612817,-1.661104 -1.445125,-1.892886"
         style="fill:#02579d;fill-opacity:1;fill-rule:nonzero;stroke:none;stroke-width:0.17559239"
         id="path1007"
         inkscape:connector-curvature="0" />
      <path
         d="m -104.2761,-42.717718 c -0.1949,-0.280948 -0.446,-0.570675 -0.73573,-0.839332 l 19.223858,-24.593471 c 0.820017,-1.039507 0.651448,-1.794555 0.472344,-2.152763 -0.172081,-0.363476 -0.661983,-0.956979 -1.978926,-0.956979 h -1.940296 c -6.128175,0.532045 -10.221234,3.069355 -12.75679,5.395955 l -15.23791,19.985927 v -11.497791 c -1.05004,-12.047394 -10.13343,-13.699719 -11.54169,-13.884091 h -0.46532 c -1.07813,0 -1.95785,0.881474 -1.95785,1.963123 v 57.819066 c 0,1.069358 0.87972,1.9490755 1.95785,1.9490755 h 10.06145 c 1.07287,0 1.94556,-0.8797175 1.94556,-1.9490755 v -26.143953 l 16.37399,25.415244 c 0.965763,1.503071 3.122037,2.6777845 4.911324,2.6777845 h 10.217722 c 0.965758,0 1.694466,-0.3441611 2.021068,-0.9780495 0.335382,-0.626865 0.217735,-1.418787 -0.32309,-2.215976"
         style="fill:#02579d;fill-opacity:1;fill-rule:nonzero;stroke:none;stroke-width:0.17559239"
         id="path1009"
         inkscape:connector-curvature="0" />
      <path
         d="m -21.916236,-52.907345 c -3.508336,-1.942052 -7.947312,-2.921858 -13.192257,-2.921858 -4.121154,0 -8.605784,0.574188 -13.690939,1.778751 -6.918341,1.615451 -6.547841,5.829668 -6.530282,5.957851 v 36.614527 c 0,1.071113 0.87445,1.9508314 1.957855,1.9508314 h 9.371367 c 1.078137,0 1.949075,-0.8797184 1.949075,-1.9508314 v -33.538149 c 0.01756,-0.58999 0.233538,-1.162421 0.688323,-1.690954 0.981561,-1.092185 3.071111,-1.799822 5.31167,-1.799822 2.026336,0 3.891127,0.556627 4.985068,1.489023 1.013168,0.82704 1.648813,1.989462 1.794554,3.274798 l 0.007,32.265104 c 0,1.071113 0.881474,1.9508314 1.952587,1.9508314 h 9.366099 c 1.086917,0 1.970147,-0.8797184 1.970147,-1.9508314 v -32.359924 c -0.375768,-5.99648 -3.992971,-7.989454 -5.940291,-9.069347"
         style="fill:#02579d;fill-opacity:1;fill-rule:nonzero;stroke:none;stroke-width:0.17559239"
         id="path1011"
         inkscape:connector-curvature="0" />
      <path
         d="m -66.276144,-71.469218 c -3.276554,0.460052 -11.638264,2.786652 -12.077245,14.600508 v 2.532043 c 0,0 -0.04917,0.365232 0.256365,0.468832 0.215978,0.07199 0.326601,-0.124671 0.565407,-0.454785 1.467953,-1.987706 4.900784,-5.72958 10.468819,-6.18612 3.701488,-0.296751 3.378398,-7.218604 2.328355,-10.426677 -0.108867,-0.375767 -0.73222,-0.644424 -1.541701,-0.533801"
         style="fill:#02579d;fill-opacity:1;fill-rule:nonzero;stroke:none;stroke-width:0.17559239"
         id="path1013"
         inkscape:connector-curvature="0" />
      <path
         d="m 13.270725,-16.694924 c -4.6409071,-0.07024 -7.5926154,-5.906929 -7.9069258,-15.596117 -0.254609,-7.99121 1.733097,-11.775227 3.4486347,-13.53993 1.2238791,-1.273045 2.7638241,-1.945564 4.4530231,-1.945564 4.444244,0 7.803326,6.542573 7.803326,15.222105 0,9.634755 -3.021945,15.859506 -7.798058,15.859506 m 14.951693,-33.186964 c -3.817379,-3.856009 -9.19753,-5.992969 -15.167672,-5.992969 -5.6909494,0 -10.8867285,2.087794 -14.6426499,5.873566 -4.2809427,4.302014 -6.5127221,10.467063 -6.4723359,17.822629 0.093064,14.323072 8.3898049,23.5820591 21.1149858,23.5820591 12.814734,0 21.22561,-9.2800581 21.415249,-23.6312251 0.100088,-7.3064 -2.06321,-13.408236 -6.247577,-17.65406"
         style="fill:#02579d;fill-opacity:1;fill-rule:nonzero;stroke:none;stroke-width:0.17559239"
         id="path1015"
         inkscape:connector-curvature="0" />
      <path
         d="m -184.02314,-39.927555 5.87409,8.043888 -21.3789,20.719903 -4.26988,-1.733097"
         style="fill:#13285b;fill-opacity:1;fill-rule:nonzero;stroke:none;stroke-width:0.17559239"
         id="path1017"
         inkscape:connector-curvature="0" />
      <path
         d="m -154.82739,-84.248832 c -1.00966,-1.20632 -2.70518,-1.573308 -4.12168,-0.879718 l -67.79851,33.129018 c 0,0 -1.15926,0.595258 -1.56453,0.839331 -1.2813,0.800702 -1.64144,1.841965 -1.64144,2.974536 0,1.899909 1.54188,3.436343 3.4295,3.436343 0.16119,0 0.45689,-0.03512 0.45689,-0.03512 0.79561,-0.06672 1.70729,-0.21071 2.72449,-0.421421 0.27217,-0.05619 0.56172,-0.128183 0.8518,-0.193152 5.73011,-1.318699 14.2114,-4.502189 23.2674,-8.316056 l 0.0377,-0.01756 0.1173,-0.03161 c 0.15979,-0.0597 0.32923,-0.09482 0.51238,-0.09482 0.91834,0 1.66461,0.751536 1.66461,1.67164 0,0.546092 -0.24284,1.046531 -0.65636,1.352061 l -0.059,0.03688 -0.0947,0.07375 c -10.11851,8.323079 -17.91797,19.467929 -21.94079,31.41348 -1.49939,4.445999 -2.47129,9.009646 -2.84864,13.5768043 v 0.00878 c -0.11729,1.3784003 -0.17893,2.770848 -0.17893,4.1527602 l 0.006,0.1843721 c 0,0.9833174 0.022,1.95785522 0.0892,2.9271253 0.0411,0.5548719 0.11729,1.037751 0.11729,1.037751 0.14188,1.3257227 1.03705,2.4582936 2.32028,2.8744476 0.35259,0.1106232 0.70729,0.1720806 1.06532,0.1720806 1.06725,0 2.10026,-0.507462 2.75522,-1.4047392 l 61.63083,-84.2615259 c 0.92677,-1.269533 0.86988,-3.004385 -0.14188,-4.205437"
         style="fill:#fda715;fill-opacity:1;fill-rule:nonzero;stroke:none;stroke-width:0.17559239"
         id="path1019"
         inkscape:connector-curvature="0" />
    </g>
  </g>
</svg>
